name Walk2.mot
datacolumns 19
datarows 25
range 0.73800000 0.76200000
endheader

                time	   L_ground_force_vx	   L_ground_force_vy	   L_ground_force_vz	   L_ground_force_px	   L_ground_force_py	   L_ground_force_pz	   R_ground_force_vx	   R_ground_force_vy	   R_ground_force_vz	   R_ground_force_px	   R_ground_force_py	   R_ground_force_pz	   L_ground_torque_x	   L_ground_torque_y	   L_ground_torque_z	   R_ground_torque_x	   R_ground_torque_y	   R_ground_torque_z	
          0.73800000	         15.22602894	        723.63014725	         28.33824135	         -0.31187548	          0.00000000	         -0.04308033	          0.00000000	          0.00000000	          0.00000000	          0.00000000	          0.00000000	          0.00000000	          0.00000000	         -1.59082230	          0.00000000	          0.00000000	          0.00000000	          0.00000000	
          0.73900000	         15.33546972	        724.72096122	         28.45644829	         -0.31150818	          0.00000000	         -0.04311582	          0.00000000	          0.00000000	          0.00000000	          0.00000000	          0.00000000	          0.00000000	          0.00000000	         -1.62087090	          0.00000000	          0.00000000	          0.00000000	          0.00000000	
          0.74000000	         15.46775028	        725.92614382	         28.56761369	         -0.31114045	          0.00000000	         -0.04315493	          0.00000000	          0.00000000	          0.00000000	          0.00000000	          0.00000000	          0.00000000	          0.00000000	         -1.62617850	          0.00000000	          0.00000000	          0.00000000	          0.00000000	
          0.74100000	         15.63131224	        727.22663148	         28.67897575	         -0.31073117	          0.00000000	         -0.04317687	          0.00000000	          0.00000000	          0.00000000	          0.00000000	          0.00000000	          0.00000000	          0.00000000	         -1.61037996	          0.00000000	          0.00000000	          0.00000000	          0.00000000	
          0.74200000	         15.83109076	        728.57134462	         28.78557259	         -0.31025096	          0.00000000	         -0.04320208	          0.00000000	          0.00000000	          0.00000000	          0.00000000	          0.00000000	          0.00000000	          0.00000000	         -1.58287455	          0.00000000	          0.00000000	          0.00000000	          0.00000000	
          0.74300000	         16.07142102	        729.93904682	         28.86942880	         -0.30969180	          0.00000000	         -0.04326195	          0.00000000	          0.00000000	          0.00000000	          0.00000000	          0.00000000	          0.00000000	          0.00000000	         -1.55120050	          0.00000000	          0.00000000	          0.00000000	          0.00000000	
          0.74400000	         16.34082309	        731.34532552	         28.92091314	         -0.30907168	          0.00000000	         -0.04334267	          0.00000000	          0.00000000	          0.00000000	          0.00000000	          0.00000000	          0.00000000	          0.00000000	         -1.52161301	          0.00000000	          0.00000000	          0.00000000	          0.00000000	
          0.74500000	         16.61415037	        732.78388289	         28.95305535	         -0.30843018	          0.00000000	         -0.04338980	          0.00000000	          0.00000000	          0.00000000	          0.00000000	          0.00000000	          0.00000000	          0.00000000	         -1.50434491	          0.00000000	          0.00000000	          0.00000000	          0.00000000	
          0.74600000	         16.87212370	        734.19694173	         28.98907437	         -0.30781301	          0.00000000	         -0.04336265	          0.00000000	          0.00000000	          0.00000000	          0.00000000	          0.00000000	          0.00000000	          0.00000000	         -1.50918951	          0.00000000	          0.00000000	          0.00000000	          0.00000000	
          0.74700000	         17.11466890	        735.53425856	         29.04614022	         -0.30725552	          0.00000000	         -0.04326453	          0.00000000	          0.00000000	          0.00000000	          0.00000000	          0.00000000	          0.00000000	          0.00000000	         -1.53854117	          0.00000000	          0.00000000	          0.00000000	          0.00000000	
          0.74800000	         17.35985472	        736.80551105	         29.12795596	         -0.30677208	          0.00000000	         -0.04313552	          0.00000000	          0.00000000	          0.00000000	          0.00000000	          0.00000000	          0.00000000	          0.00000000	         -1.58831886	          0.00000000	          0.00000000	          0.00000000	          0.00000000	
          0.74900000	         17.61992413	        738.04925886	         29.22423411	         -0.30635605	          0.00000000	         -0.04302570	          0.00000000	          0.00000000	          0.00000000	          0.00000000	          0.00000000	          0.00000000	          0.00000000	         -1.64866344	          0.00000000	          0.00000000	          0.00000000	          0.00000000	
          0.75000000	         17.87692021	        739.29706756	         29.32139434	         -0.30598656	          0.00000000	         -0.04296828	          0.00000000	          0.00000000	          0.00000000	          0.00000000	          0.00000000	          0.00000000	          0.00000000	         -1.70412197	          0.00000000	          0.00000000	          0.00000000	          0.00000000	
          0.75100000	         18.10776580	        740.58667132	         29.41055244	         -0.30563200	          0.00000000	         -0.04297479	          0.00000000	          0.00000000	          0.00000000	          0.00000000	          0.00000000	          0.00000000	          0.00000000	         -1.74287785	          0.00000000	          0.00000000	          0.00000000	          0.00000000	
          0.75200000	         18.32393715	        741.96515880	         29.48821182	         -0.30525307	          0.00000000	         -0.04303623	          0.00000000	          0.00000000	          0.00000000	          0.00000000	          0.00000000	          0.00000000	          0.00000000	         -1.76476183	          0.00000000	          0.00000000	          0.00000000	          0.00000000	
          0.75300000	         18.55830013	        743.45694845	         29.56103102	         -0.30481977	          0.00000000	         -0.04312013	          0.00000000	          0.00000000	          0.00000000	          0.00000000	          0.00000000	          0.00000000	          0.00000000	         -1.77447151	          0.00000000	          0.00000000	          0.00000000	          0.00000000	
          0.75400000	         18.83315421	        745.04771805	         29.64454728	         -0.30433422	          0.00000000	         -0.04317916	          0.00000000	          0.00000000	          0.00000000	          0.00000000	          0.00000000	          0.00000000	          0.00000000	         -1.77409966	          0.00000000	          0.00000000	          0.00000000	          0.00000000	
          0.75500000	         19.15546781	        746.69969925	         29.74941216	         -0.30382747	          0.00000000	         -0.04317470	          0.00000000	          0.00000000	          0.00000000	          0.00000000	          0.00000000	          0.00000000	          0.00000000	         -1.76697156	          0.00000000	          0.00000000	          0.00000000	          0.00000000	
          0.75600000	         19.51811160	        748.36116824	         29.87020812	         -0.30332886	          0.00000000	         -0.04310573	          0.00000000	          0.00000000	          0.00000000	          0.00000000	          0.00000000	          0.00000000	          0.00000000	         -1.76015662	          0.00000000	          0.00000000	          0.00000000	          0.00000000	
          0.75700000	         19.89849838	        749.97770031	         29.98985768	         -0.30284790	          0.00000000	         -0.04301035	          0.00000000	          0.00000000	          0.00000000	          0.00000000	          0.00000000	          0.00000000	          0.00000000	         -1.76119348	          0.00000000	          0.00000000	          0.00000000	          0.00000000	
          0.75800000	         20.26779389	        751.53249300	         30.09570668	         -0.30238496	          0.00000000	         -0.04293474	          0.00000000	          0.00000000	          0.00000000	          0.00000000	          0.00000000	          0.00000000	          0.00000000	         -1.77652714	          0.00000000	          0.00000000	          0.00000000	          0.00000000	
          0.75900000	         20.60706984	        753.05730817	         30.18914031	         -0.30194711	          0.00000000	         -0.04290291	          0.00000000	          0.00000000	          0.00000000	          0.00000000	          0.00000000	          0.00000000	          0.00000000	         -1.81014683	          0.00000000	          0.00000000	          0.00000000	          0.00000000	
          0.76000000	         20.91864577	        754.57855402	         30.28383669	         -0.30154729	          0.00000000	         -0.04289868	          0.00000000	          0.00000000	          0.00000000	          0.00000000	          0.00000000	          0.00000000	          0.00000000	         -1.86076336	          0.00000000	          0.00000000	          0.00000000	          0.00000000	
          0.76100000	         21.22045076	        756.09352492	         30.40378063	         -0.30118739	          0.00000000	         -0.04288257	          0.00000000	          0.00000000	          0.00000000	          0.00000000	          0.00000000	          0.00000000	          0.00000000	         -1.92154135	          0.00000000	          0.00000000	          0.00000000	          0.00000000	
          0.76200000	         21.52802663	        757.62130308	         30.57880018	         -0.30084990	          0.00000000	         -0.04284487	          0.00000000	          0.00000000	          0.00000000	          0.00000000	          0.00000000	          0.00000000	          0.00000000	         -1.98173528	          0.00000000	          0.00000000	          0.00000000	          0.00000000	
